<svg xmlns="http://www.w3.org/2000/svg" viewBox="0 0 595.276 841.89" fill-rule="evenodd">
  <path style="fill:#2c2c2b;stroke:none" d="M-126.267 1038.85c22.737 50.44 15.792 102.75-15.51 116.87-31.303 14.12-75.11-15.31-97.845-65.74-22.737-50.43-15.793-102.745 15.51-116.863 31.303-14.114 75.108 15.317 97.845 65.733zM183.155 1038.85c-22.738 50.44-15.793 102.75 15.512 116.87 31.303 14.12 75.106-15.31 97.846-65.74 22.734-50.43 15.789-102.745-15.513-116.863-31.301-14.114-75.108 15.317-97.845 65.733zM6.786 937.757C18.44 991.826.675 1041.52-32.894 1048.76c-33.564 7.23-70.224-30.74-81.877-84.804-11.653-54.068 6.112-103.764 39.68-110.997 33.566-7.236 70.224 30.729 81.877 84.798zM49.268 937.803C37.623 991.871 55.376 1041.57 88.94 1048.8c33.568 7.24 70.226-30.73 81.878-84.797 11.654-54.069-6.109-103.765-39.678-110.998-33.568-7.234-70.225 30.729-81.873 84.798zM-35.227 1118.5c-8.193 14.15-46.157 60.99-72.415 76.97-26.256 15.98-58.792 39.38-53.332 93.11 5.457 53.74 60.575 76.74 96.86 74.7 36.286-2.03 104.699-8.71 153.543-1.94 48.841 6.77 110.486 1.64 124.922-49.81 14.436-51.45-17.85-84.23-43.044-102.83-25.193-18.59-67.265-74.2-80.227-99.73-12.96-25.52-78.927-72.26-126.307 9.53z" transform="translate(269.815 -650.629)"/>
</svg>